HIERARCHY
ROOT Hips
{
	OFFSET -3.958830 18.904000 13.208200
	CHANNELS 6 Xposition Yposition Zposition Zrotation Yrotation Xrotation 
	JOINT LHipJoint
	{
		OFFSET 0.000000 0.000000 0.000000
		CHANNELS 3 Zrotation Yrotation Xrotation
		JOINT LeftUpLeg
		{
			OFFSET 1.800000 -1.400000 0.085000
			CHANNELS 3 Zrotation Yrotation Xrotation
			JOINT LeftLeg
			{
				OFFSET 2.215000 -6.000000 0.000000
				CHANNELS 3 Zrotation Yrotation Xrotation
				JOINT LeftFoot
				{
					OFFSET 2.500000 -6.900000 0.000000
					CHANNELS 3 Zrotation Yrotation Xrotation
					JOINT LeftToeBase
					{
						OFFSET 0.200000 -0.500000 1.950000
						CHANNELS 3 Zrotation Yrotation Xrotation
						End Site
						{
							OFFSET 0.000000 0.000000 0.000000
						}
					}
				}
			}
		}
	}
	JOINT RHipJoint
	{
		OFFSET 0.000000 0.000000 0.000000
		CHANNELS 3 Zrotation Yrotation Xrotation
		JOINT RightUpLeg
		{
			OFFSET -1.800000 -1.400000 0.085000
			CHANNELS 3 Zrotation Yrotation Xrotation
			JOINT RightLeg
			{
				OFFSET -2.215000 -6.000000 0.000000
				CHANNELS 3 Zrotation Yrotation Xrotation
				JOINT RightFoot
				{
					OFFSET -2.500000 -6.900000 0.000000
					CHANNELS 3 Zrotation Yrotation Xrotation
					JOINT RightToeBase
					{
						OFFSET -0.200000 -0.500000 1.950000
						CHANNELS 3 Zrotation Yrotation Xrotation
						End Site
						{
							OFFSET 0.000000 0.000000 0.000000
						}
					}
				}
			}
		}
	}
	JOINT LowerBack
	{
		OFFSET 0.000000 0.000000 0.000000
		CHANNELS 3 Zrotation Yrotation Xrotation
		JOINT Spine
		{
			OFFSET -0.087000 1.940000 -0.288900
			CHANNELS 3 Zrotation Yrotation Xrotation
			JOINT Spine1
			{
				OFFSET 0.000000 1.950000 0.060000
				CHANNELS 3 Zrotation Yrotation Xrotation
				JOINT Neck
				{
					OFFSET 0.000000 0.000000 0.000000
					CHANNELS 3 Zrotation Yrotation Xrotation
					JOINT Neck1
					{
						OFFSET 0.000000 1.600000 0.340000
						CHANNELS 3 Zrotation Yrotation Xrotation
						JOINT Head
						{
							OFFSET 0.000000 1.667000 -0.240000
							CHANNELS 3 Zrotation Yrotation Xrotation
							End Site
							{
								OFFSET 0.000000 0.000000 0.000000
							}
						}
					}
				}
				JOINT LeftShoulder
				{
					OFFSET 0.000000 0.000000 0.000000
					CHANNELS 3 Zrotation Yrotation Xrotation
					JOINT LeftArm
					{
						OFFSET 2.700000 1.550000 -0.730000
						CHANNELS 3 Zrotation Yrotation Xrotation
						JOINT LeftForeArm
						{
							OFFSET 5.450000 0.000000 0.000000
							CHANNELS 3 Zrotation Yrotation Xrotation
							JOINT LeftHand
							{
								OFFSET 3.450000 0.000000 0.000000
								CHANNELS 3 Zrotation Yrotation Xrotation
								JOINT LeftHandIndex1
								{
									OFFSET 0.750000 0.000000 0.000000
									CHANNELS 3 Zrotation Yrotation Xrotation
									End Site
									{
										OFFSET 0.000000 0.000000 0.000000
									}
								}
							}
						}
					}
				}
				JOINT RightShoulder
				{
					OFFSET 0.000000 0.000000 0.000000
					CHANNELS 3 Zrotation Yrotation Xrotation
					JOINT RightArm
					{
						OFFSET -2.700000 1.550000 -0.730000
						CHANNELS 3 Zrotation Yrotation Xrotation
						JOINT RightForeArm
						{
							OFFSET -5.450000 0.000000 0.000000
							CHANNELS 3 Zrotation Yrotation Xrotation
							JOINT RightHand
							{
								OFFSET -3.450000 0.000000 0.000000
								CHANNELS 3 Zrotation Yrotation Xrotation
								JOINT RightHandIndex1
								{
									OFFSET -0.750000 0.000000 0.000000
									CHANNELS 3 Zrotation Yrotation Xrotation
									End Site
									{
										OFFSET 0.000000 0.000000 0.000000
									}
								}
							}
						}
					}
				}
			}
		}
	}
}
MOTION
Frames: 9
Frame Time: 0.016667
1.233440 17.045310 -0.665900 -5.237204 -10.272859 -3.800576 -14.931068 12.879891 2.569814 -1.060975 -0.166712 -3.783375 -6.328934 6.154178 15.003033 -0.734742 4.846723 3.097213 0.260770 -0.139130 0.356060 18.731818 -9.363547 4.639727 3.606660 8.784017 -48.972676 2.871726 -5.092816 26.427130 -0.014786 -2.758842 3.447036 0.097910 0.318550 0.202630 -4.568157 -2.153404 -7.830505 27.122282 -10.577593 18.818967 -7.758999 -6.490764 8.848542 2.558312 -2.845736 -7.905180 -7.932521 1.654580 34.845158 -14.620560 6.615920 -11.251810 -18.079132 -12.713021 0.586466 -28.489658 -24.514410 -3.213828 48.146817 -68.948693 -31.870787 -3.721056 1.921156 0.593690 0.337920 -0.168210 0.048220 12.580564 9.913721 6.561148 53.799047 6.570420 -17.455634 -30.270917 74.375012 -23.975405 1.132455 -0.961081 -0.419670 0.362620 0.199790 -0.452220 
1.236030 17.042430 -0.662700 -4.990149 -10.318157 -3.945167 -14.935815 12.888489 2.590697 -1.405320 -0.068989 -3.498416 -6.141607 6.088208 14.814607 -0.732587 4.828300 3.104652 0.260310 -0.137880 0.359360 18.726432 -9.372299 4.613235 3.573813 8.628528 -48.874712 2.962839 -5.097642 26.177263 -0.010696 -2.733693 3.455359 0.097700 0.315760 0.204220 -4.554033 -2.172876 -7.829174 26.907859 -10.588777 18.937560 -7.768583 -6.577711 8.850323 2.556439 -2.737246 -7.826207 -7.728960 1.635209 34.773033 -14.858870 6.813210 -11.385650 -18.104244 -12.634379 0.451373 -27.957720 -24.709025 -3.142586 49.614780 -68.839990 -32.632061 -3.716985 1.883186 0.592440 0.339720 -0.166030 0.046610 12.620537 9.687153 6.556559 53.939373 6.473731 -17.604083 -31.706508 75.232498 -25.354287 1.114822 -0.917377 -0.418660 0.360000 0.198560 -0.453900 
1.237280 17.038240 -0.659140 -4.738408 -10.385574 -4.049545 -14.940287 12.896517 2.609260 -1.746242 -0.012270 -3.358268 -5.981198 6.048660 14.833003 -0.729021 4.820357 3.107849 0.259100 -0.137890 0.361960 18.721024 -9.380766 4.588846 3.552813 8.494799 -48.749211 3.076610 -5.107025 25.954560 -0.006768 -2.714558 3.461631 0.096740 0.314450 0.206410 -4.540274 -2.191931 -7.826826 26.664062 -10.566309 19.007042 -7.753521 -6.642361 8.832360 2.539988 -2.632348 -7.748747 -7.527632 1.625890 34.682574 -15.072610 7.017840 -11.437980 -18.048315 -12.472531 0.317313 -27.587736 -24.893224 -3.034851 50.612430 -68.771365 -33.128473 -3.715976 1.858838 0.589590 0.342900 -0.165380 0.044930 12.607367 9.399021 6.533861 54.186979 6.415499 -17.693588 -32.879796 75.976592 -26.526619 1.100348 -0.880937 -0.417280 0.356400 0.197630 -0.455210 
1.236800 17.033240 -0.655610 -4.490743 -10.441730 -4.139855 -14.946203 12.910642 2.626635 -2.059846 0.007354 -3.328846 -5.839399 6.031521 15.027749 -0.726122 4.823619 3.106328 0.256410 -0.139490 0.363570 18.713156 -9.387257 4.564184 3.535535 8.369980 -48.574144 3.225026 -5.128293 25.765809 -0.003778 -2.702417 3.465817 0.095370 0.313930 0.208310 -4.520088 -2.225837 -7.825306 26.350526 -10.525208 19.076463 -7.660258 -6.696805 8.801508 2.514788 -2.531003 -7.681897 -7.337522 1.624187 34.597596 -15.311220 7.232780 -11.487830 -17.951621 -12.271591 0.201274 -27.401043 -25.069675 -2.912941 51.422077 -68.655446 -33.503741 -3.716191 1.838166 0.587820 0.346410 -0.164780 0.043250 12.573517 9.096020 6.498716 54.470063 6.384867 -17.760740 -33.865718 76.632787 -27.548213 1.087817 -0.847426 -0.417430 0.353840 0.197570 -0.456780 
1.235000 17.028800 -0.652280 -4.253602 -10.518049 -4.263404 -14.951788 12.928552 2.644515 -2.336979 0.003802 -3.325564 -5.723929 6.035437 15.337475 -0.720418 4.838913 3.100578 0.254390 -0.141270 0.365540 18.704194 -9.396750 4.537803 3.551534 8.256392 -48.313298 3.363513 -5.147906 25.621467 -0.002893 -2.693803 3.469376 0.093580 0.313390 0.210280 -4.497854 -2.262950 -7.825456 25.998094 -10.468952 19.198445 -7.543241 -6.730401 8.758965 2.487304 -2.418496 -7.620608 -7.141045 1.635751 34.582753 -15.479610 7.432670 -11.558130 -17.898555 -12.100025 0.094687 -27.221752 -25.214023 -2.821106 52.069430 -68.584595 -33.812481 -3.715645 1.820588 0.587630 0.348360 -0.162760 0.042790 12.588895 8.823362 6.465945 54.716947 6.342728 -17.827410 -34.628804 77.193541 -28.385882 1.078739 -0.818303 -0.417550 0.352450 0.196860 -0.457950 
1.232230 17.024510 -0.649240 -4.018383 -10.602609 -4.387327 -14.957879 12.948486 2.662138 -2.601690 -0.015154 -3.361354 -5.606940 6.044603 15.705452 -0.715401 4.858206 3.093276 0.250090 -0.145840 0.365770 18.694357 -9.404644 4.513255 3.575311 8.158722 -48.034093 3.509574 -5.176480 25.538999 -0.001567 -2.694040 3.471493 0.090970 0.313770 0.210370 -4.473148 -2.305788 -7.827499 25.611601 -10.398951 19.326055 -7.400157 -6.747969 8.699461 2.462506 -2.306738 -7.565469 -6.953088 1.653224 34.603856 -15.632110 7.632020 -11.573880 -17.896474 -11.942869 -0.000770 -27.069989 -25.317332 -2.745218 52.633025 -68.499006 -34.063039 -3.716392 1.803832 0.587490 0.350810 -0.162650 0.041610 12.649749 8.577719 6.437244 54.891631 6.271233 -17.874512 -35.023120 77.709983 -28.961348 1.073435 -0.799072 -0.419560 0.352040 0.197550 -0.459790 
1.229050 17.020660 -0.646590 -3.828738 -10.665379 -4.488381 -14.964113 12.968296 2.675880 -2.811955 -0.056710 -3.449397 -5.494701 6.056669 16.112350 -0.709608 4.878450 3.085148 0.247130 -0.149730 0.367340 18.684676 -9.409164 4.493971 3.636372 8.094247 -47.770877 3.640319 -5.209226 25.528728 -0.001854 -2.702637 3.470232 0.087730 0.313790 0.211650 -4.448215 -2.350645 -7.830193 25.257883 -10.341774 19.443866 -7.242217 -6.764553 8.617084 2.444703 -2.196207 -7.505970 -6.762148 1.668960 34.615982 -15.761490 7.824060 -11.559740 -17.933217 -11.782257 -0.090639 -26.961811 -25.392689 -2.676246 53.060581 -68.443433 -34.247955 -3.717642 1.793057 0.586430 0.353310 -0.162840 0.040060 12.736249 8.333453 6.398195 54.989432 6.182753 -17.885539 -35.057603 78.163782 -29.254629 1.072931 -0.794162 -0.419670 0.349550 0.197590 -0.461380 
1.225060 17.016960 -0.644290 -3.658131 -10.738349 -4.571561 -14.971182 12.987114 2.686946 -2.989886 -0.121566 -3.595489 -5.397104 6.079250 16.596243 -0.702257 4.903435 3.074282 0.243760 -0.153430 0.369130 18.674614 -9.408703 4.481908 3.728587 8.068548 -47.543247 3.744652 -5.240373 25.590172 -0.003716 -2.717755 3.465420 0.084070 0.313220 0.213480 -4.421366 -2.398009 -7.835820 24.885278 -10.267162 19.564386 -7.049539 -6.759477 8.520628 2.431873 -2.068220 -7.442229 -6.537050 1.670067 34.631223 -15.908270 8.028400 -11.535610 -17.968088 -11.602479 -0.180702 -26.913586 -25.468347 -2.596890 53.369367 -68.421888 -34.377993 -3.719225 1.786326 0.584310 0.355650 -0.162440 0.037980 12.812927 8.072315 6.346340 55.074377 6.106493 -17.861123 -34.884713 78.527389 -29.344678 1.076191 -0.798039 -0.418730 0.346050 0.197700 -0.462490 
1.220530 17.013860 -0.642450 -3.501997 -10.810938 -4.645506 -14.978045 13.004484 2.695860 -3.148991 -0.200327 -3.775140 -5.293945 6.102629 17.120818 -0.695911 4.930604 3.063180 0.240800 -0.156140 0.370070 18.665167 -9.406150 4.473304 3.822582 8.059963 -47.337840 3.857503 -5.276689 25.686560 -0.006439 -2.737136 3.460099 0.081640 0.313610 0.213570 -4.395855 -2.444572 -7.841553 24.516224 -10.195956 19.681604 -6.852787 -6.751999 8.420748 2.404406 -1.959474 -7.382074 -6.347128 1.687937 34.643416 -16.001580 8.207100 -11.529790 -17.986378 -11.419227 -0.261563 -26.903257 -25.527001 -2.525522 53.642054 -68.395864 -34.492701 -3.719945 1.778518 0.583080 0.357520 -0.162310 0.037000 12.901956 7.825099 6.288053 55.157098 6.047885 -17.824116 -34.652201 78.797854 -29.332496 1.079732 -0.803821 -0.419240 0.345090 0.197440 -0.463300 
